<svg width="32" height="32" viewBox="0 0 32 32" fill="none" xmlns="http://www.w3.org/2000/svg">
<path d="M31.7938 10.9657C31.6374 10.8121 31.4189 10.7392 31.2015 10.7683H22.7124V7.01727C22.7124 3.31013 19.7072 0.304932 16 0.304932C12.2929 0.304932 9.2877 3.31013 9.2877 7.01727V10.7683H0.798421C0.561491 10.7683 0.324636 10.7683 0.206133 10.9657C0.0469709 11.1187 -0.0268667 11.3401 0.00872952 11.558L2.97009 27.7467C3.38379 30.0049 5.33372 31.6574 7.62926 31.6951H24.3707C26.6728 31.6385 28.6186 29.973 29.0298 27.7072L31.9912 11.558C32.0268 11.3401 31.9529 11.1187 31.7938 10.9657ZM10.867 7.01727C10.867 4.18242 13.1651 1.88431 16 1.88431C18.8348 1.88431 21.1329 4.18242 21.1329 7.01727V10.7683H10.867V7.01727ZM27.4504 27.5097C27.1845 29.0062 25.8905 30.1011 24.3707 30.1157H7.62926C6.10943 30.1011 4.81542 29.0063 4.54947 27.5097L1.74607 12.3477H30.2539L27.4504 27.5097Z" fill="#004F75"/>
<path d="M21.9227 20.0471C22.3588 20.0471 22.7124 19.6935 22.7124 19.2574V16.8883C22.7124 16.4522 22.3588 16.0986 21.9227 16.0986C21.4865 16.0986 21.133 16.4522 21.133 16.8883V19.2574C21.1329 19.6935 21.4865 20.0471 21.9227 20.0471Z" fill="#004F75"/>
<path d="M10.0773 20.0471C10.5134 20.0471 10.867 19.6935 10.867 19.2574V16.8883C10.867 16.4522 10.5134 16.0986 10.0773 16.0986C9.64114 16.0986 9.2876 16.4522 9.2876 16.8883V19.2574C9.2876 19.6935 9.64114 20.0471 10.0773 20.0471Z" fill="#004F75"/>
</svg>
