<svg width="87" height="72" viewBox="0 0 87 72" fill="none" xmlns="http://www.w3.org/2000/svg">
<path d="M0.599995 33.75C0.599993 13.8678 31.6938 4.83502e-06 51.3711 3.11477e-06C71.0484 1.39453e-06 87 16.1177 87 36C87 55.8823 71.0484 72 51.3711 72C31.6939 72 0.599997 53.6323 0.599995 33.75Z" fill="#004F75"/>
<path d="M25.8 36L34.6226 44.8226C34.8767 45.0768 35.3815 44.6925 35.2151 44.374C34.0422 42.1285 32.55 38.7343 32.55 36C32.55 33.2658 34.0422 29.8716 35.2151 27.6261C35.3815 27.3076 34.8767 26.9233 34.6226 27.1775L25.8 36Z" fill="#DEF0F4"/>
</svg>
