<svg width="26" height="26" viewBox="0 0 26 26" fill="none" xmlns="http://www.w3.org/2000/svg">
<path d="M24.6663 24.4669L17.7931 17.3189C19.5462 15.5607 20.6323 13.1369 20.6323 10.4638C20.6323 5.10732 16.2749 0.75 10.9185 0.75C5.56203 0.75 1.20471 5.10732 1.20471 10.4638C1.20471 15.8202 5.56203 20.1776 10.9185 20.1776C13.2697 20.1776 15.4275 19.3371 17.1094 17.9425L23.9992 25.108C24.0899 25.2028 24.2111 25.25 24.3328 25.25C24.4484 25.25 24.5636 25.207 24.6533 25.1209C24.8374 24.9438 24.843 24.651 24.6663 24.4669ZM10.9185 19.2524C6.07224 19.2524 2.12983 15.31 2.12983 10.4638C2.12983 5.61753 6.07224 1.67512 10.9185 1.67512C15.7647 1.67512 19.7071 5.61753 19.7071 10.4638C19.7071 15.31 15.7643 19.2524 10.9185 19.2524Z" fill="#004F75" stroke="#004F75" stroke-width="0.8"/>
</svg>
